<svg version="1.1" id="Layer_1" xmlns="http://www.w3.org/2000/svg" xmlns:xlink="http://www.w3.org/1999/xlink" x="0px" y="0px"
	 width="100%" viewBox="0 0 448 334" enable-background="new 0 0 448 334" xml:space="preserve">
<path fill="#FFFFFF" opacity="1.000000" stroke="none" 
	d="
M313.000000,335.000000 
	C208.666687,335.000000 104.833374,335.000000 1.000042,335.000000 
	C1.000028,223.666702 1.000028,112.333412 1.000014,1.000087 
	C150.333267,1.000058 299.666534,1.000058 448.999878,1.000029 
	C448.999908,112.333252 448.999908,223.666504 448.999939,334.999878 
	C403.833344,335.000000 358.666656,335.000000 313.000000,335.000000 
M108.498070,204.913345 
	C108.327782,204.920212 108.157486,204.927094 107.328705,204.888199 
	C106.888824,204.888947 106.448936,204.889679 105.484039,204.448318 
	C104.550606,205.123886 103.617172,205.799454 102.341866,206.648193 
	C102.341866,206.648193 102.215958,207.010162 101.608002,206.982117 
	C101.405197,206.987091 101.202393,206.992065 100.355141,207.113327 
	C99.277557,207.867508 98.199974,208.621674 96.381203,209.172104 
	C95.176285,209.779495 93.426643,210.068573 92.855331,211.046219 
	C89.299873,217.130508 84.393211,221.204559 77.627594,223.489655 
	C75.124786,224.334976 73.224556,226.964432 71.049507,228.780212 
	C71.294174,229.291489 71.538841,229.802780 71.783508,230.314056 
	C72.972198,230.125412 74.239090,230.137970 75.335472,229.711838 
	C79.226868,228.199341 83.060097,226.537201 87.784103,224.995056 
	C90.440956,224.646454 93.097809,224.297852 96.965759,223.790344 
	C96.617676,228.346008 96.261375,233.009216 95.407288,238.182083 
	C95.608345,241.454727 95.809402,244.727356 95.949135,248.832870 
	C95.952042,250.222168 95.954941,251.611450 95.888260,253.752686 
	C95.941849,254.501465 95.995430,255.250244 96.021072,256.794830 
	C96.429802,258.377563 96.639870,260.048218 97.292641,261.522919 
	C98.337479,263.883331 99.500572,266.252869 101.082253,268.246887 
	C101.315407,268.540863 104.119232,266.794250 105.734787,265.993988 
	C106.377579,265.675568 107.023392,265.363251 106.681778,265.530273 
	C105.621849,261.241821 104.718124,257.585327 103.909782,253.207748 
	C103.912041,252.482239 103.914291,251.756744 103.968811,250.302750 
	C103.855896,249.831818 103.742989,249.360870 104.015388,248.198135 
	C105.687210,241.802628 107.359032,235.407104 109.718231,229.121994 
	C111.241188,230.073410 112.255562,234.153458 114.621521,229.919067 
	C118.176033,233.897598 120.932930,229.824188 124.666992,229.273224 
	C127.755852,228.652496 131.356598,231.833572 134.502640,228.021011 
	C134.502640,228.021011 134.990402,228.013306 135.709915,228.014771 
	C136.468979,227.344604 137.228043,226.674438 138.493103,225.444473 
	C142.887558,225.441879 143.626740,222.458939 143.835449,217.754288 
	C139.558182,217.088028 135.162125,216.403275 130.431244,215.666367 
	C131.130508,220.342453 129.143127,220.614502 126.292152,219.532730 
	C125.087830,219.075745 123.940781,218.467834 122.858009,217.200821 
	C123.233154,215.794937 123.608299,214.389038 124.649078,212.667770 
	C124.824501,209.314819 124.999924,205.961884 125.165176,202.803375 
	C121.968269,203.673889 119.489929,204.348740 116.484428,205.065750 
	C116.309494,205.087540 116.134552,205.109329 115.478340,204.926254 
	C115.304077,204.920425 115.129822,204.914597 114.318451,204.844299 
	C113.892570,204.867706 113.466682,204.891098 112.717674,204.539246 
	C112.141762,204.682907 111.565849,204.826569 110.329086,204.868088 
	C109.885979,204.916061 109.442871,204.964050 108.498070,204.913345 
M183.553787,76.209854 
	C183.367523,76.486267 183.181244,76.762688 182.332092,76.995308 
	C181.644669,77.691780 180.957260,78.388245 180.158112,79.861702 
	C179.522385,81.983574 178.370789,84.103882 178.364349,86.227661 
	C178.352905,89.997223 178.793091,93.816284 179.515610,97.522774 
	C179.984268,99.926910 181.009628,102.340370 182.299377,104.432983 
	C183.551132,106.463959 185.458969,108.090569 187.047852,110.653664 
	C189.552765,117.185295 196.210922,121.092323 197.717636,128.674500 
	C194.363495,132.881012 191.042374,137.114456 187.641861,141.283157 
	C185.831863,143.502045 183.884491,145.608871 181.879227,147.903458 
	C184.853897,148.292618 186.670563,148.530273 187.702225,148.665222 
	C194.749954,142.918884 201.785141,137.182739 209.566940,131.731033 
	C213.233109,130.706772 216.967422,129.871063 220.537521,128.580963 
	C222.401337,127.907433 224.867203,126.800400 225.504501,125.249519 
	C227.047256,121.495049 229.993393,121.461838 233.543655,121.622757 
	C235.922287,119.470818 240.400253,120.064568 241.161514,115.658890 
	C241.280411,114.970757 242.759354,114.460983 243.668793,113.981377 
	C244.659286,113.459007 245.719025,113.067894 246.748566,112.619560 
	C246.640427,112.130676 246.532303,111.641792 246.424164,111.152908 
	C244.654327,111.292252 242.671616,110.981079 241.170975,111.690147 
	C239.468582,112.494591 238.197800,114.212479 236.317474,115.915337 
	C236.044449,113.871323 235.893402,112.740387 235.518509,110.980568 
	C234.781082,109.326622 234.043671,107.672668 233.389374,106.205154 
	C228.746338,108.709312 224.791565,110.842247 220.196259,113.120277 
	C219.157211,114.070641 218.118179,115.021004 216.936874,115.206528 
	C214.543381,110.279602 212.273941,105.285866 209.678818,100.467529 
	C208.925827,99.069458 207.240173,98.173721 205.609055,96.405937 
	C204.435745,93.944054 203.262451,91.482162 202.512177,88.583237 
	C199.058960,80.479759 195.605728,72.376282 192.152512,64.272804 
	C191.776901,64.416992 191.401306,64.561172 191.025696,64.705353 
	C191.262985,65.625023 191.500259,66.544685 191.737549,67.464355 
	C191.403793,67.210571 191.070038,66.956787 190.736282,66.703003 
	C188.790115,69.104401 186.843948,71.505798 184.537628,74.364922 
	C184.363235,74.909195 184.188858,75.453468 183.553787,76.209854 
M216.904343,250.632416 
	C216.904343,250.632416 216.826096,250.236633 216.912430,249.490524 
	C215.469376,245.901169 217.007599,240.934189 211.901001,238.199860 
	C211.224396,236.110001 210.010635,234.030487 209.970200,231.928391 
	C209.840012,225.160263 210.142502,218.383820 210.278152,211.610580 
	C209.557190,211.338898 208.836227,211.067215 208.115250,210.795532 
	C207.451096,212.248856 206.786926,213.702179 205.856812,215.737473 
	C204.965164,213.393265 204.592545,212.413620 204.053711,210.996979 
	C201.506897,213.791794 196.125687,214.283295 198.440872,218.821915 
	C196.765839,220.766373 194.744675,222.401611 193.690781,224.518402 
	C192.412201,227.086548 191.567184,230.013733 191.212631,232.869720 
	C190.413010,239.311066 188.242889,246.003983 193.288162,251.852264 
	C193.589493,252.201523 193.955566,252.859497 193.820343,253.165863 
	C191.946594,257.411163 195.374451,258.583527 198.065613,260.935089 
	C200.676407,264.353821 203.875809,266.948883 207.802292,268.587280 
	C207.470459,269.040710 207.138626,269.494110 206.300919,270.377075 
	C206.303543,271.253113 206.306152,272.129181 205.950333,273.513153 
	C205.229950,274.214783 204.509567,274.916443 203.139618,275.915070 
	C201.607422,280.633728 196.062759,280.126221 192.967224,283.339081 
	C194.409515,285.024933 195.637131,286.459869 196.884125,287.917450 
	C200.106049,284.440826 203.065857,281.247040 206.884842,278.132355 
	C208.609634,278.140137 210.334412,278.147919 212.353088,278.791656 
	C215.260590,279.794739 218.809387,282.375854 220.954926,281.503967 
	C227.302155,278.924561 232.353790,274.062164 237.564545,268.590790 
	C241.171524,265.816956 245.699265,263.682404 244.792175,257.843445 
	C244.556534,256.326538 244.538254,254.775879 244.420135,253.240738 
	C242.660904,253.495834 240.897430,253.725189 239.143570,254.012985 
	C237.238449,254.325607 235.342255,254.692642 233.701706,254.294174 
	C232.435364,247.674225 232.425003,247.661407 227.456436,251.674667 
	C226.580246,252.382401 225.831238,253.247589 224.179596,253.996140 
	C222.775238,253.956650 221.370880,253.917175 219.698380,253.297195 
	C218.786819,252.541946 217.875244,251.786713 216.904343,250.632416 
M350.495636,77.981186 
	C350.495636,77.981186 350.017609,77.981636 349.578583,77.754265 
	C349.309692,77.542549 349.127686,77.272301 348.922424,76.305260 
	C348.022919,76.277687 347.039429,76.001053 346.240051,76.270546 
	C344.087372,76.996262 342.013275,77.954987 339.808014,78.862335 
	C339.523651,80.052269 339.103119,81.811905 338.682587,83.571541 
	C337.554138,83.290710 336.425720,83.009872 335.216217,82.708862 
	C334.810974,84.136688 334.404877,85.567596 334.000000,87.000000 
	C334.000000,87.000000 333.998779,86.998665 333.357849,87.078056 
	C332.898834,87.713676 332.439819,88.349289 331.215698,88.993614 
	C328.342010,88.950684 326.279297,89.892914 325.951996,93.819366 
	C321.913788,97.629829 318.683990,101.892548 317.594727,108.965546 
	C321.930450,103.923988 325.390167,99.901039 329.694946,95.965523 
	C333.935303,96.969254 335.797882,94.471039 337.727020,91.123627 
	C338.304810,93.121185 339.580444,95.224304 339.297974,97.091751 
	C338.866058,99.947289 338.979034,101.953911 341.980682,103.800781 
	C343.483612,107.586479 344.986542,111.372169 346.922363,116.248207 
	C346.923584,116.222748 346.391052,117.843315 346.879761,119.050438 
	C348.001099,121.820122 349.620361,124.388206 351.067749,127.720161 
	C352.447723,129.071121 353.599335,130.949524 355.254059,131.666016 
	C358.988861,133.283173 360.073822,139.155594 365.379974,138.604340 
	C366.587158,139.071014 367.794342,139.537704 369.699280,140.003082 
	C370.160248,139.947571 370.621216,139.892044 371.182617,140.565048 
	C373.231384,141.793106 375.280151,143.021164 377.369507,144.273575 
	C380.511932,140.002853 377.642914,137.616180 376.006195,134.306900 
	C374.142273,132.685959 373.393921,130.549530 372.737457,128.208755 
	C370.185822,119.110443 367.432739,110.068634 365.682861,101.002090 
	C366.893158,100.879761 368.103455,100.757423 369.959167,100.770927 
	C370.969299,100.497086 371.979431,100.223244 373.735779,100.087753 
	C374.492645,100.052155 375.249542,100.016556 376.566223,100.475090 
	C378.754364,100.041832 380.942505,99.608574 383.130646,99.175316 
	C382.197510,97.591286 381.264374,96.007256 380.511475,93.634117 
	C379.968658,92.294014 379.801147,90.492935 378.818573,89.692963 
	C374.364532,86.066597 369.680481,82.722755 365.155853,79.334610 
	C365.891663,77.345978 366.499664,75.702881 367.597351,73.640335 
	C367.597351,71.229813 367.597351,68.819283 367.597351,65.856155 
	C361.504395,68.685257 355.357971,69.364883 352.826569,75.860619 
	C352.503326,76.541519 352.180054,77.222420 351.416199,77.940536 
	C351.416199,77.940536 350.973602,77.974876 350.495636,77.981186 
M260.811554,184.191727 
	C260.815796,185.120895 260.820068,186.050049 260.962738,187.665802 
	C265.608124,192.684967 269.845917,198.234604 277.361145,200.488724 
	C278.569702,200.674240 279.778259,200.859772 281.845612,201.079178 
	C283.560120,201.046936 285.274658,201.014694 287.520844,200.960205 
	C287.698029,200.951645 287.875214,200.943069 288.489716,201.049423 
	C288.489716,201.049423 288.938873,201.101791 289.121979,201.778748 
	C291.140747,202.898880 293.159546,204.019012 295.264771,205.871597 
	C295.228088,207.205917 295.199280,209.708740 295.153687,209.709045 
	C288.863586,209.751297 290.235138,216.715866 286.754028,219.416168 
	C289.303040,218.749695 291.560150,217.604309 293.238647,215.891830 
	C298.317291,210.710449 303.171631,205.309174 308.742554,200.104187 
	C309.229706,201.281540 309.716888,202.458878 310.280640,203.821304 
	C311.106262,203.116394 311.893860,202.443970 312.424713,201.990753 
	C313.850708,204.094559 314.721558,206.842316 316.528625,207.773834 
	C322.184875,210.689606 328.194397,212.920197 333.601929,215.218597 
	C335.589661,214.467102 337.671448,212.864212 338.938507,213.356827 
	C342.476624,214.732407 345.557953,214.281204 348.957550,213.123230 
	C350.881866,212.467743 353.191528,212.403976 355.223602,212.727463 
	C358.495605,213.248276 360.384918,212.265503 361.562012,208.516129 
	C362.311035,205.019531 361.461456,202.289612 357.664520,201.398926 
	C354.831482,200.734360 351.915924,200.421677 348.997650,199.196609 
	C348.302490,198.463867 347.675964,197.187714 346.900604,197.089737 
	C342.941223,196.589447 340.577576,191.769684 335.621582,193.371994 
	C334.245361,193.816956 331.887177,191.224640 329.214905,190.014069 
	C325.524384,189.647629 321.833862,189.281174 318.054291,188.099274 
	C318.035736,186.735107 318.017181,185.370941 318.458069,183.491776 
	C318.414032,181.433823 318.369995,179.375854 318.325928,177.317917 
	C316.924896,177.635208 315.523834,177.952499 313.427551,178.360931 
	C310.644470,179.928909 307.861389,181.496872 304.451996,183.072952 
	C304.245331,183.102875 304.038696,183.132782 303.103058,183.097626 
	C301.481384,182.111404 299.943634,180.925873 298.213440,180.197418 
	C296.619110,179.526169 294.818024,179.345947 292.250977,178.577362 
	C280.783600,176.734924 269.316193,174.892502 258.048523,173.082153 
	C258.755615,174.838135 259.832794,177.513138 260.350067,180.420929 
	C260.709900,181.590698 261.069763,182.760468 260.811554,184.191727 
z"/>
<path fill="#EAF0FA" opacity="1.000000" stroke="none" 
	d="
M329.979492,190.025787 
	C331.887177,191.224640 334.245361,193.816956 335.621582,193.371994 
	C340.577576,191.769684 342.941223,196.589447 346.900604,197.089737 
	C347.675964,197.187714 348.302490,198.463867 348.674255,199.590424 
	C347.940094,201.199463 346.835419,202.964172 347.268494,203.511063 
	C348.074677,204.529022 349.724243,205.145798 351.115570,205.381332 
	C354.656952,205.980804 359.016968,204.136627 361.000000,208.988129 
	C360.384918,212.265503 358.495605,213.248276 355.223602,212.727463 
	C353.191528,212.403976 350.881866,212.467743 348.957550,213.123230 
	C345.557953,214.281204 342.476624,214.732407 338.938507,213.356827 
	C337.671448,212.864212 335.589661,214.467102 333.601929,215.218597 
	C328.194397,212.920197 322.184875,210.689606 316.528625,207.773834 
	C314.721558,206.842316 313.850708,204.094559 312.424713,201.990753 
	C311.893860,202.443970 311.106262,203.116394 310.280640,203.821304 
	C309.716888,202.458878 309.229706,201.281540 308.218018,199.988434 
	C307.693481,199.872681 307.292572,199.701752 307.439026,199.481781 
	C308.052032,198.565216 308.518555,197.868607 309.373047,197.145538 
	C312.521118,196.750549 315.281250,196.382034 318.450378,196.011383 
	C320.782288,195.718018 322.864258,194.807327 324.598083,195.252548 
	C329.645386,196.548645 330.281372,193.913315 329.979492,190.025787 
M341.594635,211.521378 
	C341.594635,211.521378 341.478973,211.592712 341.594635,211.521378 
z"/>
<path fill="#9FBCE9" opacity="1.000000" stroke="none" 
	d="
M260.909943,180.188126 
	C259.832794,177.513138 258.755615,174.838135 258.048523,173.082153 
	C269.316193,174.892502 280.783600,176.734924 292.758362,178.948334 
	C293.719421,182.053238 299.399414,181.904053 296.881348,186.378922 
	C294.989594,186.288940 293.268707,186.003159 291.547791,185.717392 
	C291.423401,186.176651 291.298981,186.635925 291.174591,187.095200 
	C297.548859,191.139038 290.782440,192.407883 289.682251,194.873291 
	C293.165710,197.224625 292.962952,198.923523 288.938873,201.101791 
	C288.938873,201.101791 288.489716,201.049423 288.172119,200.811066 
	C287.566071,200.709290 287.277618,200.845871 286.989166,200.982452 
	C285.274658,201.014694 283.560120,201.046936 281.495361,200.770157 
	C280.282440,195.752380 278.453217,199.520187 277.000214,199.988525 
	C269.845917,198.234604 265.608124,192.684967 261.244934,187.189423 
	C262.723907,186.561798 263.920685,186.410583 264.985657,186.484344 
	C265.064575,187.258087 265.275299,187.806808 265.486023,188.355545 
	C265.601135,187.657181 265.716278,186.958817 266.120361,186.207443 
	C266.603241,185.398499 266.797150,184.642578 266.934265,183.538239 
	C265.851776,180.273788 263.729095,179.538666 260.909943,180.188126 
M264.430969,176.703430 
	C264.703766,176.989136 264.976562,177.274841 265.249359,177.560562 
	C265.367645,177.447495 265.594940,177.242310 265.588470,177.234634 
	C265.333832,176.933273 265.057922,176.649902 264.430969,176.703430 
z"/>
<path fill="#9EBBE8" opacity="1.000000" stroke="none" 
	d="
M184.897781,73.907196 
	C186.843948,71.505798 188.790115,69.104401 190.736282,66.703003 
	C191.070038,66.956787 191.403793,67.210571 191.737549,67.464355 
	C191.500259,66.544685 191.262985,65.625023 191.025696,64.705353 
	C191.401306,64.561172 191.776901,64.416992 192.152512,64.272804 
	C195.605728,72.376282 199.058960,80.479759 201.977783,88.920013 
	C199.662643,89.667480 197.881912,90.078178 195.062103,90.728516 
	C197.312988,87.499611 197.441116,85.834877 193.947906,85.857216 
	C193.806473,85.668007 193.719467,85.618507 193.632462,85.569016 
	C193.753952,85.713478 193.875458,85.857933 193.860596,86.324036 
	C193.477570,88.516090 193.230927,90.386520 192.913208,92.795853 
	C191.519089,92.156250 190.260452,91.578812 189.140167,90.946259 
	C189.185211,90.926834 189.091919,90.962532 188.721588,91.022179 
	C187.342606,93.790291 187.411377,93.620346 190.848480,95.011131 
	C194.263519,96.392975 197.520721,98.164848 202.228928,100.430679 
	C201.937897,102.433540 201.452332,105.775177 200.673645,109.234772 
	C195.908585,112.256294 191.987305,111.590752 189.061462,107.446503 
	C188.246979,108.452194 187.662842,109.173477 187.078705,109.894753 
	C185.458969,108.090569 183.551132,106.463959 182.299377,104.432983 
	C181.009628,102.340370 179.984268,99.926910 179.515610,97.522774 
	C178.793091,93.816284 178.352905,89.997223 178.364349,86.227661 
	C178.370789,84.103882 179.522385,81.983574 180.448486,79.605614 
	C181.172897,79.931007 181.606949,80.512489 181.938919,81.352509 
	C182.045029,82.045502 182.253220,82.479965 182.461411,82.914421 
	C182.947647,82.301079 183.433884,81.687737 183.962524,81.018219 
	C184.004959,80.962044 184.083984,80.845520 184.371643,80.632584 
	C184.837204,79.220436 185.015091,78.021210 185.434402,76.639008 
	C185.416489,75.606407 185.157135,74.756798 184.897781,73.907196 
z"/>
<path fill="#A2BFEB" opacity="1.000000" stroke="none" 
	d="
M197.875031,260.299133 
	C195.374451,258.583527 191.946594,257.411163 193.820343,253.165863 
	C193.955566,252.859497 193.589493,252.201523 193.288162,251.852264 
	C188.242889,246.003983 190.413010,239.311066 191.212631,232.869720 
	C191.567184,230.013733 192.412201,227.086548 193.690781,224.518402 
	C194.744675,222.401611 196.765839,220.766373 198.440872,218.821915 
	C196.125687,214.283295 201.506897,213.791794 204.053711,210.996979 
	C204.592545,212.413620 204.965164,213.393265 205.856812,215.737473 
	C206.786926,213.702179 207.451096,212.248856 208.115250,210.795532 
	C208.836227,211.067215 209.557190,211.338898 210.278152,211.610580 
	C210.142502,218.383820 209.840012,225.160263 209.970200,231.928391 
	C210.010635,234.030487 211.224396,236.110001 211.911911,238.909576 
	C209.987320,240.144638 208.819962,246.180420 205.875687,240.355881 
	C204.968231,241.538132 203.753723,242.627258 203.216217,243.984467 
	C202.821350,244.981567 203.313232,246.329819 203.409958,247.521576 
	C202.186417,246.964157 200.962860,246.406723 199.155594,245.583359 
	C197.899780,247.164917 196.528595,248.891785 194.801315,251.067108 
	C197.294357,250.391586 198.528946,250.057068 199.763550,249.722534 
	C199.075775,251.179810 198.388016,252.637070 197.367798,254.798737 
	C197.720291,256.018494 202.061325,257.778778 197.875031,260.299133 
z"/>
<path fill="#9FBDEA" opacity="1.000000" stroke="none" 
	d="
M371.082184,139.836548 
	C370.621216,139.892044 370.160248,139.947571 369.205750,139.711288 
	C367.628204,138.921722 366.544128,138.423950 365.460083,137.926163 
	C360.073822,139.155594 358.988861,133.283173 355.254059,131.666016 
	C353.599335,130.949524 352.447723,129.071121 351.329590,127.176163 
	C352.439636,123.487251 353.287842,120.342339 353.851746,118.251526 
	C353.047058,115.967369 352.524200,114.483200 352.284485,113.084763 
	C354.796570,111.675453 357.025543,110.180428 359.980560,108.198402 
	C357.419464,105.933456 355.733612,104.442574 354.057770,102.682655 
	C356.207245,101.722298 357.112671,100.252190 356.862000,97.656677 
	C356.615173,94.906387 356.338135,92.532921 356.053528,90.094322 
	C356.986908,90.094322 357.967529,90.094322 358.974915,90.425293 
	C357.592438,94.406876 361.517731,91.795982 362.017975,93.333870 
	C362.857483,95.914825 363.835083,98.450867 364.754578,101.005798 
	C367.432739,110.068634 370.185822,119.110443 372.737457,128.208755 
	C373.393921,130.549530 374.142273,132.685959 375.682922,134.682739 
	C373.933868,136.651230 372.508026,138.243896 371.082184,139.836548 
z"/>
<path fill="#9EBBE8" opacity="1.000000" stroke="none" 
	d="
M233.063324,121.147934 
	C229.993393,121.461838 227.047256,121.495049 225.504501,125.249519 
	C224.867203,126.800400 222.401337,127.907433 220.537521,128.580963 
	C216.967422,129.871063 213.233109,130.706772 209.017548,131.371002 
	C206.920074,129.968811 205.371994,128.926666 203.996368,127.643707 
	C203.350616,126.582108 202.532379,125.761337 200.875580,124.099411 
	C201.256821,122.709076 201.892746,120.389915 202.528671,118.070755 
	C203.649628,118.805939 204.770584,119.541130 206.397812,120.608360 
	C206.713242,119.298103 207.188812,118.088760 207.253098,116.857933 
	C207.330154,115.382591 207.056259,113.888924 206.911285,112.122200 
	C206.724930,112.122200 205.433167,112.122200 204.187286,111.826080 
	C204.285583,109.941574 204.206100,108.335358 204.417908,106.768524 
	C204.857391,103.517181 205.451508,100.286743 205.982056,97.047714 
	C207.240173,98.173721 208.925827,99.069458 209.678818,100.467529 
	C212.273941,105.285866 214.543381,110.279602 216.891998,115.881424 
	C217.729614,117.688828 218.382980,119.341339 219.539871,119.851067 
	C222.393265,121.108253 225.447632,120.044701 225.976501,117.710800 
	C226.495605,116.087097 227.037338,114.833511 227.579071,113.579926 
	C229.161758,116.626648 231.201035,113.400589 232.968689,114.338745 
	C233.417053,116.847275 229.726639,119.046600 233.063324,121.147934 
M212.520309,121.061371 
	C212.189026,121.623703 211.857758,122.186035 211.526474,122.748367 
	C212.050766,122.893112 212.575058,123.037857 213.099365,123.182602 
	C213.106201,122.515205 213.113037,121.847816 212.520309,121.061371 
M202.540421,121.528748 
	C202.835373,121.841942 203.130325,122.155136 203.425278,122.468330 
	C203.535660,122.353294 203.752335,122.150108 203.740784,122.136177 
	C203.483124,121.825439 203.200302,121.535553 202.540421,121.528748 
z"/>
<path fill="#D7E6F7" opacity="1.000000" stroke="none" 
	d="
M197.970322,260.617126 
	C202.061325,257.778778 197.720291,256.018494 197.367798,254.798737 
	C198.388016,252.637070 199.075775,251.179810 199.763550,249.722534 
	C198.528946,250.057068 197.294357,250.391586 194.801315,251.067108 
	C196.528595,248.891785 197.899780,247.164917 199.155594,245.583359 
	C200.962860,246.406723 202.186417,246.964157 203.409958,247.521576 
	C203.313232,246.329819 202.821350,244.981567 203.216217,243.984467 
	C203.753723,242.627258 204.968231,241.538132 205.875687,240.355881 
	C208.819962,246.180420 209.987320,240.144638 211.986603,239.293976 
	C217.007599,240.934189 215.469376,245.901169 216.655151,250.005676 
	C216.267517,251.025162 216.137177,251.529465 215.690247,251.988159 
	C214.831940,251.213745 214.431656,250.185760 213.707321,249.843445 
	C213.033249,249.524902 212.014053,249.936630 211.146790,250.026855 
	C211.233185,250.810089 211.149643,252.207672 211.431137,252.285553 
	C216.764008,253.760635 212.545624,256.048706 212.065781,258.265564 
	C212.423294,259.021271 212.688858,259.511475 212.939240,260.337006 
	C212.983902,261.114563 213.043747,261.556793 213.087982,262.292175 
	C212.748505,263.042175 212.424622,263.499084 211.988953,263.771759 
	C211.589859,263.725433 211.302567,263.863312 211.016235,264.334198 
	C211.010284,265.111053 211.003372,265.554901 211.059479,266.294067 
	C210.115646,267.095306 209.108780,267.601288 208.101929,268.107239 
	C203.875809,266.948883 200.676407,264.353821 197.970322,260.617126 
z"/>
<path fill="#EAF0FA" opacity="1.000000" stroke="none" 
	d="
M122.767700,217.928543 
	C123.940781,218.467834 125.087830,219.075745 126.292152,219.532730 
	C129.143127,220.614502 131.130508,220.342453 130.431244,215.666367 
	C135.162125,216.403275 139.558182,217.088028 143.835449,217.754288 
	C143.626740,222.458939 142.887558,225.441879 137.965729,225.616669 
	C136.622375,226.530350 135.806381,227.271835 134.990402,228.013306 
	C134.990402,228.013306 134.502640,228.021011 134.126495,227.716476 
	C133.251251,225.258163 132.752151,223.104401 132.045685,220.055817 
	C128.808914,223.654373 126.409752,226.321686 124.010605,228.988998 
	C120.932930,229.824188 118.176033,233.897598 114.621521,229.919067 
	C112.255562,234.153458 111.241188,230.073410 109.475677,228.781342 
	C109.771278,225.627335 110.309425,222.814011 110.922119,219.671066 
	C111.319069,218.574677 111.641464,217.807877 111.982018,217.020599 
	C112.000175,217.000092 111.959427,217.036179 112.004272,217.279327 
	C112.049110,217.522491 112.174614,218.000824 112.147552,218.306107 
	C112.815399,218.436508 113.510292,218.261627 114.555161,218.055878 
	C117.525993,217.992859 120.146843,217.960709 122.767700,217.928543 
z"/>
<path fill="#9EBAE5" opacity="1.000000" stroke="none" 
	d="
M376.006409,99.980957 
	C375.249542,100.016556 374.492645,100.052155 373.331909,99.720413 
	C371.707214,99.532234 370.486420,99.711395 369.148926,99.582588 
	C368.307861,98.191643 367.583435,97.108650 367.105072,95.922272 
	C367.567719,95.547874 367.784302,95.276886 368.210693,94.742508 
	C369.214996,94.073578 370.009521,93.668037 371.030579,93.146866 
	C369.610382,92.065903 368.506348,90.505424 367.387177,90.494469 
	C361.575684,90.437599 364.721893,88.045174 366.204773,85.995193 
	C366.202698,85.927475 366.070099,85.926689 365.570129,85.942322 
	C364.071106,85.958733 362.939453,85.958733 361.482635,85.958733 
	C362.254761,85.278595 362.779663,84.816231 363.770844,83.943130 
	C361.391846,83.755272 359.509460,83.606636 357.889435,83.478714 
	C358.350983,85.776894 358.675476,87.392555 358.846619,88.791183 
	C357.721222,87.818184 356.749207,87.062210 356.332184,86.737892 
	C354.689819,87.598793 353.340393,88.306145 351.985840,88.638214 
	C352.550629,86.899849 353.120575,85.536743 353.753265,84.023567 
	C353.438416,83.986389 352.823059,83.913727 352.161316,83.424713 
	C352.028870,81.306671 351.942841,79.605003 351.856812,77.903320 
	C352.180054,77.222420 352.503326,76.541519 353.481812,76.000938 
	C355.401031,76.756989 356.888824,78.138657 357.887604,77.846802 
	C361.059052,76.920113 364.048096,75.369347 367.107666,74.059784 
	C366.499664,75.702881 365.891663,77.345978 365.155853,79.334610 
	C369.680481,82.722755 374.364532,86.066597 378.818573,89.692963 
	C379.801147,90.492935 379.968658,92.294014 380.296387,94.268654 
	C378.722992,96.595787 377.364716,98.288376 376.006409,99.980957 
M370.374695,96.026413 
	C370.111633,95.871788 369.848602,95.717171 369.585541,95.562546 
	C369.485199,95.837219 369.384857,96.111885 369.284515,96.386551 
	C369.676025,96.423714 370.067566,96.460869 370.374695,96.026413 
z"/>
<path fill="#EAF0FA" opacity="1.000000" stroke="none" 
	d="
M352.207703,83.841072 
	C352.823059,83.913727 353.438416,83.986389 353.753265,84.023567 
	C353.120575,85.536743 352.550629,86.899849 351.790894,88.784637 
	C350.905029,89.058205 350.208954,88.810089 349.512878,88.561966 
	C349.473938,89.161705 349.210205,89.882133 349.451477,90.331406 
	C349.771057,90.926552 350.485382,91.309715 351.030090,91.783981 
	C346.098785,96.567589 352.666412,100.527100 351.881409,105.267250 
	C351.527100,106.018814 351.269135,106.509773 350.641083,106.926102 
	C349.572754,105.023300 348.874512,103.195137 347.983246,100.861572 
	C345.983093,101.574402 343.969910,102.291862 341.956757,103.009323 
	C338.979034,101.953911 338.866058,99.947289 339.297974,97.091751 
	C339.580444,95.224304 338.304810,93.121185 337.359192,90.713516 
	C335.993866,89.201775 334.996307,88.100136 333.998779,86.998497 
	C334.404877,85.567596 334.810974,84.136688 335.216217,82.708862 
	C336.425720,83.009872 337.554138,83.290710 338.682587,83.571541 
	C339.103119,81.811905 339.523651,80.052269 339.808014,78.862335 
	C342.013275,77.954987 344.087372,76.996262 346.240051,76.270546 
	C347.039429,76.001053 348.022919,76.277687 348.662048,76.789780 
	C346.537811,81.004410 347.706604,83.020988 352.207703,83.841072 
z"/>
<path fill="#9EBBE8" opacity="1.000000" stroke="none" 
	d="
M207.952118,268.347260 
	C209.108780,267.601288 210.115646,267.095306 211.422470,266.334656 
	C213.130371,266.732910 214.538315,267.385834 216.681061,268.379517 
	C216.926559,264.808807 217.213959,262.232697 213.103577,261.999054 
	C213.043747,261.556793 212.983902,261.114563 213.258057,260.293304 
	C213.888367,259.493073 214.184708,259.071838 214.481049,258.650604 
	C213.645294,258.433746 212.809570,258.216919 211.973831,258.000092 
	C212.545624,256.048706 216.764008,253.760635 211.431137,252.285553 
	C211.149643,252.207672 211.233185,250.810089 211.146790,250.026855 
	C212.014053,249.936630 213.033249,249.524902 213.707321,249.843445 
	C214.431656,250.185760 214.831940,251.213745 215.689606,252.236526 
	C216.005569,252.530533 216.011993,253.027893 216.146820,253.313416 
	C217.517044,254.717484 218.752472,255.836029 219.991745,257.328857 
	C220.258881,258.804993 220.522156,259.906860 220.785431,261.008728 
	C220.395172,260.312073 220.004929,259.615417 219.614685,258.918793 
	C221.407288,258.282898 223.199890,257.647034 225.248505,257.017151 
	C225.675079,257.017029 225.845673,257.010925 226.237030,257.003021 
	C226.457794,257.001221 226.899338,256.998169 226.949585,257.330261 
	C227.993164,258.417236 228.986511,259.172150 229.949402,260.291046 
	C229.395386,262.235443 228.871826,263.815826 228.075806,266.218658 
	C230.039078,265.094269 231.322784,264.359070 232.827164,263.497498 
	C232.888855,264.773560 232.942596,265.885376 232.720734,266.937012 
	C230.160080,267.566956 227.634293,271.462555 225.978424,265.572601 
	C224.750443,267.435852 223.948639,268.652466 223.052612,269.959930 
	C222.958374,270.050812 222.776047,270.238708 222.524628,270.249023 
	C221.941177,270.214325 221.609116,270.169342 220.931946,270.067932 
	C216.866669,268.836365 215.950989,272.272644 213.980042,274.263824 
	C213.962738,274.680115 213.970215,274.847046 213.988846,275.007019 
	C214.000015,275.000061 214.014343,274.977997 213.680466,275.009094 
	C212.917465,276.078674 212.488342,277.117157 212.059204,278.155701 
	C210.334412,278.147919 208.609634,278.140137 206.271530,277.814514 
	C205.035202,276.870453 204.412186,276.244263 203.789169,275.618073 
	C204.509567,274.916443 205.229950,274.214783 206.468292,273.246521 
	C207.653488,271.997925 208.320694,271.015961 209.331711,270.055786 
	C210.134094,270.096252 210.592667,270.114990 211.223633,270.346069 
	C211.964325,270.598236 212.532608,270.638062 213.100891,270.677856 
	C213.107758,270.537842 213.114609,270.397858 213.121460,270.257843 
	C212.687927,270.142670 212.254379,270.027496 211.655655,269.658905 
	C210.647675,269.607391 209.804901,269.809265 208.603363,270.005310 
	C207.765335,269.982178 207.286072,269.964874 206.806793,269.947540 
	C207.138626,269.494110 207.470459,269.040710 207.952118,268.347260 
M221.538284,267.537170 
	C221.538284,266.145142 221.538284,264.753113 221.538284,263.361084 
	C220.847488,263.515808 220.156693,263.670502 219.465912,263.825226 
	C219.975632,265.215515 220.485367,266.605804 220.719986,268.107269 
	C220.814606,268.073151 220.909225,268.039032 221.538284,267.537170 
M225.646347,261.475250 
	C225.696564,260.893005 225.746780,260.310730 225.797012,259.728485 
	C225.516083,259.747528 225.235168,259.766602 224.954239,259.785675 
	C225.005249,260.316528 225.056259,260.847382 225.646347,261.475250 
z"/>
<path fill="#9EBAE5" opacity="1.000000" stroke="none" 
	d="
M297.052155,186.183136 
	C299.399414,181.904053 293.719421,182.053238 293.186890,179.134384 
	C294.818024,179.345947 296.619110,179.526169 298.213440,180.197418 
	C299.943634,180.925873 301.481384,182.111404 303.483154,183.431488 
	C305.465240,186.179352 307.067200,188.593369 308.669159,191.007401 
	C309.025940,190.805603 309.382690,190.603806 309.739441,190.402008 
	C309.739441,188.812454 309.739441,187.222885 309.739441,186.008224 
	C308.020020,184.922455 306.549194,183.993652 305.078339,183.064850 
	C307.861389,181.496872 310.644470,179.928909 313.731567,178.656769 
	C313.121429,181.313354 310.599182,183.732224 314.170593,185.866730 
	C315.496887,185.222321 316.747772,184.614548 317.998657,184.006775 
	C318.017181,185.370941 318.035736,186.735107 318.011139,188.851120 
	C315.631256,191.766846 317.104889,193.887115 318.041382,196.013519 
	C315.281250,196.382034 312.521118,196.750549 309.446411,196.828735 
	C309.193390,195.817307 309.254974,195.096191 309.316589,194.375092 
	C308.216614,194.904465 307.116638,195.433823 305.774750,195.800140 
	C303.793243,195.774811 302.053589,195.912521 300.293610,196.051834 
	C301.615601,189.215927 301.217346,188.018066 297.052155,186.183136 
z"/>
<path fill="#9FBCE9" opacity="1.000000" stroke="none" 
	d="
M86.915359,224.931763 
	C83.060097,226.537201 79.226868,228.199341 75.335472,229.711838 
	C74.239090,230.137970 72.972198,230.125412 71.783508,230.314056 
	C71.538841,229.802780 71.294174,229.291489 71.049507,228.780212 
	C73.224556,226.964432 75.124786,224.334976 77.627594,223.489655 
	C84.393211,221.204559 89.299873,217.130508 92.855331,211.046219 
	C93.426643,210.068573 95.176285,209.779495 96.928085,209.527786 
	C99.649879,210.255646 101.824791,210.627823 103.999847,211.000000 
	C104.000000,211.000000 104.000305,211.000000 104.309166,211.151550 
	C106.068832,211.855743 107.519638,212.408401 108.986725,212.980118 
	C109.003014,212.999176 109.041634,213.031158 109.054245,213.345184 
	C107.355461,215.453506 105.644066,217.247803 103.699356,218.981995 
	C103.466049,218.921890 102.998886,218.803848 102.993179,218.452942 
	C102.126755,216.738632 101.266045,215.375229 100.405334,214.011810 
	C99.918701,214.267380 99.432068,214.522934 98.945435,214.778488 
	C99.291763,216.232925 99.638092,217.687347 99.705444,219.213165 
	C98.466393,219.989594 97.015289,216.394547 96.344879,219.636414 
	C94.958145,219.218506 93.571411,218.800598 91.756737,218.253723 
	C90.380234,220.152435 88.647797,222.542099 86.915359,224.931763 
z"/>
<path fill="#E6EEF9" opacity="1.000000" stroke="none" 
	d="
M212.206146,278.473663 
	C212.488342,277.117157 212.917465,276.078674 213.729050,275.138489 
	C214.182556,275.289337 214.253616,275.341858 214.324661,275.394379 
	C214.209000,275.267578 214.093338,275.140747 213.977676,275.013947 
	C213.970215,274.847046 213.962738,274.680115 214.416870,274.250488 
	C217.648392,273.755035 221.508469,275.327881 221.277069,270.124329 
	C221.609116,270.169342 221.941177,270.214325 222.646530,270.414093 
	C223.236832,270.532410 223.453827,270.495941 223.670822,270.459473 
	C223.496155,270.262665 223.321503,270.065857 223.146835,269.869049 
	C223.948639,268.652466 224.750443,267.435852 225.978424,265.572601 
	C227.634293,271.462555 230.160080,267.566956 233.095917,266.938416 
	C234.830307,267.652893 235.913879,268.305786 236.997467,268.958679 
	C232.353790,274.062164 227.302155,278.924561 220.954926,281.503967 
	C218.809387,282.375854 215.260590,279.794739 212.206146,278.473663 
z"/>
<path fill="#A2BFEB" opacity="1.000000" stroke="none" 
	d="
M203.823898,127.884521 
	C205.371994,128.926666 206.920074,129.968811 208.644257,131.228790 
	C201.785141,137.182739 194.749954,142.918884 187.702225,148.665222 
	C186.670563,148.530273 184.853897,148.292618 181.879227,147.903458 
	C183.884491,145.608871 185.831863,143.502045 187.641861,141.283157 
	C191.042374,137.114456 194.363495,132.881012 198.165985,128.470276 
	C199.625870,128.511276 200.888626,131.917664 201.652969,128.023300 
	C201.688553,127.842003 203.069519,127.924751 203.823898,127.884521 
z"/>
<path fill="#DEEAF9" opacity="1.000000" stroke="none" 
	d="
M203.996368,127.643700 
	C203.069519,127.924751 201.688553,127.842003 201.652969,128.023300 
	C200.888626,131.917664 199.625870,128.511276 198.327850,128.158112 
	C196.210922,121.092323 189.552765,117.185295 187.063278,110.274208 
	C187.662842,109.173477 188.246979,108.452194 189.061462,107.446503 
	C191.987305,111.590752 195.908585,112.256294 200.778839,109.468887 
	C201.416122,110.037216 201.655106,110.489380 201.681122,111.145111 
	C201.442322,111.976234 201.335312,112.613396 201.408066,113.229309 
	C201.546448,114.400757 201.667923,115.606499 202.086639,116.685371 
	C202.170792,116.902199 204.221909,116.648598 204.225967,116.559891 
	C204.293518,115.079483 204.179428,113.590790 204.113190,112.096146 
	C204.120529,112.088348 204.141403,112.122200 204.141403,112.122200 
	C205.433167,112.122200 206.724930,112.122200 206.911285,112.122200 
	C207.056259,113.888924 207.330154,115.382591 207.253098,116.857933 
	C207.188812,118.088760 206.713242,119.298103 206.397812,120.608360 
	C204.770584,119.541130 203.649628,118.805939 202.528671,118.070755 
	C201.892746,120.389915 201.256821,122.709076 200.875580,124.099411 
	C202.532379,125.761337 203.350616,126.582108 203.996368,127.643700 
z"/>
<path fill="#D3E3F6" opacity="1.000000" stroke="none" 
	d="
M296.881348,186.378922 
	C301.217346,188.018066 301.615601,189.215927 300.293610,196.051834 
	C302.053589,195.912521 303.793243,195.774811 305.670593,196.073837 
	C305.854492,197.610611 305.900635,198.710663 305.569397,199.892303 
	C303.785217,199.973923 302.378448,199.973923 301.197296,199.973923 
	C301.360992,200.841125 301.717316,201.889114 301.551758,201.979309 
	C299.471130,203.113037 297.315063,204.108398 295.178314,205.139145 
	C293.159546,204.019012 291.140747,202.898880 289.030426,201.440277 
	C292.962952,198.923523 293.165710,197.224625 289.682251,194.873291 
	C290.782440,192.407883 297.548859,191.139038 291.174591,187.095200 
	C291.298981,186.635925 291.423401,186.176651 291.547791,185.717392 
	C293.268707,186.003159 294.989594,186.288940 296.881348,186.378922 
z"/>
<path fill="#DEEAF9" opacity="1.000000" stroke="none" 
	d="
M87.349731,224.963409 
	C88.647797,222.542099 90.380234,220.152435 91.756737,218.253723 
	C93.571411,218.800598 94.958145,219.218506 96.344879,219.636414 
	C97.015289,216.394547 98.466393,219.989594 99.883286,219.444336 
	C101.226357,219.337357 102.112617,219.070602 102.998886,218.803833 
	C102.998886,218.803848 103.466049,218.921890 103.852448,219.227036 
	C104.770744,219.713165 105.302635,219.894150 105.758049,220.328918 
	C105.455063,221.056381 105.228569,221.530014 104.977814,222.268402 
	C104.905045,222.689926 104.893349,222.876465 104.797546,222.995026 
	C104.703636,223.111221 104.498955,223.251663 104.386078,223.221237 
	C103.211235,222.904663 102.045097,222.555771 100.876549,222.215836 
	C100.754944,223.402969 100.633347,224.590103 100.511749,225.777237 
	C101.741371,225.809784 102.971184,225.836395 104.200546,225.876770 
	C105.150795,225.907959 106.100479,225.956406 107.121994,226.282227 
	C106.378937,229.448044 105.564308,232.328781 104.988235,234.365921 
	C101.675926,235.571686 98.790512,236.622055 95.905090,237.672424 
	C96.261375,233.009216 96.617676,228.346008 96.965759,223.790344 
	C93.097809,224.297852 90.440956,224.646454 87.349731,224.963409 
z"/>
<path fill="#D7E6F7" opacity="1.000000" stroke="none" 
	d="
M237.281006,268.774719 
	C235.913879,268.305786 234.830307,267.652893 233.371521,266.998596 
	C232.942596,265.885376 232.888855,264.773560 232.827164,263.497498 
	C231.322784,264.359070 230.039078,265.094269 228.075806,266.218658 
	C228.871826,263.815826 229.395386,262.235443 230.252625,260.178223 
	C231.538269,258.146240 232.490219,256.591095 233.442169,255.035950 
	C235.342255,254.692642 237.238449,254.325607 239.143570,254.012985 
	C240.897430,253.725189 242.660904,253.495834 244.420135,253.240723 
	C244.538254,254.775879 244.556534,256.326538 244.792175,257.843445 
	C245.699265,263.682404 241.171524,265.816956 237.281006,268.774719 
z"/>
<path fill="#A2BFEB" opacity="1.000000" stroke="none" 
	d="
M201.894073,110.941544 
	C201.655106,110.489380 201.416122,110.037216 201.071960,109.350937 
	C201.452332,105.775177 201.937897,102.433540 202.228928,100.430679 
	C197.520721,98.164848 194.263519,96.392975 190.848480,95.011131 
	C187.411377,93.620346 187.342606,93.790291 188.722275,91.023064 
	C189.000000,91.000000 189.001831,91.001381 189.001831,91.001381 
	C190.260452,91.578812 191.519089,92.156250 192.913208,92.795853 
	C193.230927,90.386520 193.477570,88.516090 193.862122,86.322830 
	C194.000000,86.000000 194.002365,85.996933 194.002365,85.996933 
	C197.441116,85.834877 197.312988,87.499611 195.062103,90.728516 
	C197.881912,90.078178 199.662643,89.667480 201.766266,89.138535 
	C203.262451,91.482162 204.435745,93.944054 205.795547,96.726822 
	C205.451508,100.286743 204.857391,103.517181 204.417908,106.768524 
	C204.206100,108.335358 204.285583,109.941574 204.187286,111.826080 
	C204.141403,112.122200 204.120529,112.088348 203.829559,111.960938 
	C202.990433,111.536201 202.442245,111.238876 201.894073,110.941544 
z"/>
<path fill="#9FBCE9" opacity="1.000000" stroke="none" 
	d="
M95.656189,237.927246 
	C98.790512,236.622055 101.675926,235.571686 104.988235,234.365921 
	C105.564308,232.328781 106.378937,229.448044 107.393242,226.052109 
	C108.503448,223.058228 107.753998,221.796768 105.002075,222.003662 
	C105.228569,221.530014 105.455063,221.056381 106.182648,220.303223 
	C108.071678,220.016022 109.459625,220.008347 110.847565,220.000671 
	C110.309425,222.814011 109.771278,225.627335 109.131989,228.726135 
	C107.359032,235.407104 105.687210,241.802628 103.581055,248.414948 
	C102.431358,248.420883 101.715996,248.209991 100.835785,247.754517 
	C100.121407,247.332626 99.571869,247.155304 99.169037,246.685455 
	C100.438377,245.610703 101.561020,244.828461 103.157364,243.716171 
	C100.778885,243.462509 98.948502,243.267288 96.417229,242.997330 
	C97.469292,244.657242 98.220512,245.842499 98.975891,247.258514 
	C98.980057,247.489258 98.950546,247.950500 98.583199,247.966537 
	C97.480721,247.988373 96.745598,247.994186 96.010468,248.000000 
	C95.809402,244.727356 95.608345,241.454727 95.656189,237.927246 
z"/>
<path fill="#9FBDEA" opacity="1.000000" stroke="none" 
	d="
M110.922119,219.671066 
	C109.459625,220.008347 108.071678,220.016022 106.259140,220.049408 
	C105.302635,219.894150 104.770744,219.713165 104.085762,219.287140 
	C105.644066,217.247803 107.355461,215.453506 109.185638,213.277649 
	C109.193085,212.917770 109.081757,212.939407 108.970436,212.961060 
	C107.519638,212.408401 106.068832,211.855743 104.339066,210.819061 
	C104.709755,208.520157 105.359406,206.705292 106.009056,204.890411 
	C106.448936,204.889679 106.888824,204.888947 107.752136,205.305481 
	C108.263275,205.977921 108.350998,206.233078 108.425858,206.501892 
	C108.412994,206.515533 108.473404,206.533585 108.745590,206.678680 
	C109.665131,206.561783 110.312492,206.299789 110.977203,206.021240 
	C110.994553,206.004654 111.028900,205.971008 111.333344,205.954010 
	C112.105461,205.596191 112.573128,205.255341 113.040802,204.914505 
	C113.466682,204.891098 113.892570,204.867706 114.532715,205.154831 
	C114.496490,205.995422 114.246002,206.525482 114.120651,207.269043 
	C114.469048,207.747559 114.751366,207.909851 115.362404,208.102173 
	C115.781334,208.767120 116.081253,209.759048 116.058617,209.766449 
	C112.473221,210.941101 115.262604,212.831863 115.516312,214.413528 
	C116.562325,213.714981 117.582581,212.973267 118.661232,212.329407 
	C119.860550,211.613495 121.113060,210.986694 122.313950,210.336517 
	C122.954712,211.352325 123.469078,212.167740 123.983437,212.983154 
	C123.608299,214.389038 123.233154,215.794937 122.812851,217.564682 
	C120.146843,217.960709 117.525993,217.992859 114.214706,218.027496 
	C113.074387,218.020248 112.624496,218.010529 112.174614,218.000824 
	C112.174614,218.000824 112.049110,217.522491 112.148048,217.219482 
	C112.152611,216.958023 112.058235,216.999557 111.963860,217.041092 
	C111.641464,217.807877 111.319069,218.574677 110.922119,219.671066 
z"/>
<path fill="#DEEAF9" opacity="1.000000" stroke="none" 
	d="
M341.968719,103.405052 
	C343.969910,102.291862 345.983093,101.574402 347.983246,100.861572 
	C348.874512,103.195137 349.572754,105.023300 350.897034,107.131882 
	C351.682495,109.274551 351.841919,111.136795 352.001343,112.999039 
	C352.524200,114.483200 353.047058,115.967369 353.851746,118.251526 
	C353.287842,120.342339 352.439636,123.487251 351.314453,126.835159 
	C349.620361,124.388206 348.001099,121.820122 346.879761,119.050438 
	C346.391052,117.843315 346.923584,116.222748 346.922363,116.248207 
	C344.986542,111.372169 343.483612,107.586479 341.968719,103.405052 
z"/>
<path fill="#9EBBE8" opacity="1.000000" stroke="none" 
	d="
M101.000633,247.999100 
	C101.715996,248.209991 102.431358,248.420883 103.388397,248.760864 
	C103.742989,249.360870 103.855896,249.831818 103.712875,250.845673 
	C103.576088,252.235336 103.695244,253.082077 103.814392,253.928833 
	C104.718124,257.585327 105.621849,261.241821 106.681778,265.530273 
	C107.023392,265.363251 106.377579,265.675568 105.734787,265.993988 
	C104.119232,266.794250 101.315407,268.540863 101.082253,268.246887 
	C99.500572,266.252869 98.337479,263.883331 97.292641,261.522919 
	C96.639870,260.048218 96.429802,258.377563 96.380722,256.360657 
	C97.878784,255.161835 99.017197,254.397186 100.155602,253.632538 
	C99.993233,253.345963 99.830856,253.059387 99.668480,252.772827 
	C98.431602,252.848801 97.194725,252.924774 95.957848,253.000748 
	C95.954941,251.611450 95.952042,250.222168 95.979797,248.416443 
	C96.745598,247.994186 97.480721,247.988373 98.611435,247.993820 
	C99.007011,248.005066 99.062943,248.058441 99.083405,248.352631 
	C99.510567,248.947205 99.917259,249.247589 100.323959,249.547974 
	C100.548965,249.032379 100.773972,248.516800 100.999489,248.000610 
	C101.000000,248.000000 101.000633,247.999100 101.000633,247.999100 
z"/>
<path fill="#779EE8" opacity="1.000000" stroke="none" 
	d="
M367.352509,73.850067 
	C364.048096,75.369347 361.059052,76.920113 357.887604,77.846802 
	C356.888824,78.138657 355.401031,76.756989 353.791107,76.031937 
	C355.357971,69.364883 361.504395,68.685257 367.597351,65.856155 
	C367.597351,68.819283 367.597351,71.229813 367.352509,73.850067 
z"/>
<path fill="#A2BFEB" opacity="1.000000" stroke="none" 
	d="
M295.221558,205.505371 
	C297.315063,204.108398 299.471130,203.113037 301.551758,201.979309 
	C301.717316,201.889114 301.360992,200.841125 301.197296,199.973923 
	C302.378448,199.973923 303.785217,199.973923 305.907440,199.880493 
	C306.846130,199.758636 307.069336,199.730194 307.292572,199.701752 
	C307.292572,199.701752 307.693481,199.872681 307.903412,199.933136 
	C303.171631,205.309174 298.317291,210.710449 293.238647,215.891830 
	C291.560150,217.604309 289.303040,218.749695 286.754028,219.416168 
	C290.235138,216.715866 288.863586,209.751297 295.153687,209.709045 
	C295.199280,209.708740 295.228088,207.205917 295.221558,205.505371 
z"/>
<path fill="#DEEAF9" opacity="1.000000" stroke="none" 
	d="
M366.859009,96.025665 
	C367.583435,97.108650 368.307861,98.191643 369.135651,99.770950 
	C369.239014,100.267265 369.313751,100.635094 369.313751,100.635086 
	C368.103455,100.757423 366.893158,100.879761 365.218719,101.003952 
	C363.835083,98.450867 362.857483,95.914825 362.017975,93.333870 
	C361.517731,91.795982 357.592438,94.406876 358.995056,90.153534 
	C358.992310,89.369926 358.996155,89.189064 358.999939,89.008209 
	C358.675476,87.392555 358.350983,85.776894 357.889435,83.478714 
	C359.509460,83.606636 361.391846,83.755272 363.770844,83.943130 
	C362.779663,84.816231 362.254761,85.278595 361.482635,85.958733 
	C362.939453,85.958733 364.071106,85.958733 365.602661,85.978020 
	C366.002594,85.997307 366.074249,86.062126 366.074249,86.062126 
	C364.721893,88.045174 361.575684,90.437599 367.387177,90.494469 
	C368.506348,90.505424 369.610382,92.065903 371.030579,93.146866 
	C370.009521,93.668037 369.214996,94.073578 367.970856,94.734711 
	C367.521210,94.990303 367.043304,94.946564 366.922058,94.684113 
	C366.227051,93.916824 365.653290,93.411987 364.984955,92.730637 
	C364.688110,92.575768 364.485809,92.597420 364.283508,92.619064 
	C364.476410,92.787354 364.669342,92.955650 364.919098,93.437950 
	C365.618652,94.201920 366.261383,94.651878 366.872406,95.331802 
	C366.840729,95.561760 366.859009,96.025665 366.859009,96.025665 
M361.321228,90.465897 
	C361.321228,90.465897 361.611542,90.603951 361.611542,90.603951 
	C361.611542,90.603951 361.550110,90.302383 361.321228,90.465897 
z"/>
<path fill="#6A95E4" opacity="1.000000" stroke="none" 
	d="
M113.995514,207.055542 
	C114.246002,206.525482 114.496490,205.995422 114.851273,205.187057 
	C115.129822,204.914597 115.304077,204.920425 115.817520,205.207611 
	C116.441673,205.333847 116.726631,205.178711 117.011597,205.023590 
	C119.489929,204.348740 121.968269,203.673889 125.165176,202.803375 
	C124.999924,205.961884 124.824501,209.314819 124.316254,212.825470 
	C123.469078,212.167740 122.954712,211.352325 122.313950,210.336517 
	C121.113060,210.986694 119.860550,211.613495 118.661232,212.329407 
	C117.582581,212.973267 116.562325,213.714981 115.516312,214.413528 
	C115.262604,212.831863 112.473221,210.941101 116.058617,209.766449 
	C116.081253,209.759048 115.781334,208.767120 115.222908,207.901367 
	C114.587288,207.323135 114.314537,207.152390 113.995514,207.055542 
z"/>
<path fill="#6A95E4" opacity="1.000000" stroke="none" 
	d="
M232.963913,113.971901 
	C231.201035,113.400589 229.161758,116.626648 227.579071,113.579926 
	C227.037338,114.833511 226.495605,116.087097 225.674805,117.570877 
	C223.876099,116.192444 222.356461,114.583809 220.836807,112.975174 
	C224.791565,110.842247 228.746338,108.709312 233.389374,106.205154 
	C234.043671,107.672668 234.781082,109.326622 235.347046,111.416489 
	C234.438354,112.558907 233.701126,113.265404 232.963913,113.971901 
z"/>
<path fill="#D3E3F6" opacity="1.000000" stroke="none" 
	d="
M361.281006,208.752136 
	C359.016968,204.136627 354.656952,205.980804 351.115570,205.381332 
	C349.724243,205.145798 348.074677,204.529022 347.268494,203.511063 
	C346.835419,202.964172 347.940094,201.199463 348.694000,199.968292 
	C351.915924,200.421677 354.831482,200.734360 357.664520,201.398926 
	C361.461456,202.289612 362.311035,205.019531 361.281006,208.752136 
z"/>
<path fill="#DEEAF9" opacity="1.000000" stroke="none" 
	d="
M232.968689,114.338745 
	C233.701126,113.265404 234.438354,112.558907 235.458954,111.730927 
	C235.893402,112.740387 236.044449,113.871323 236.317474,115.915337 
	C238.197800,114.212479 239.468582,112.494591 241.170975,111.690147 
	C242.671616,110.981079 244.654327,111.292252 246.424164,111.152908 
	C246.532303,111.641792 246.640427,112.130676 246.748566,112.619560 
	C245.719025,113.067894 244.659286,113.459007 243.668793,113.981377 
	C242.759354,114.460983 241.280411,114.970757 241.161514,115.658890 
	C240.400253,120.064568 235.922287,119.470818 233.303497,121.385345 
	C229.726639,119.046600 233.417053,116.847275 232.968689,114.338745 
z"/>
<path fill="#D7E6F7" opacity="1.000000" stroke="none" 
	d="
M318.450378,196.011383 
	C317.104889,193.887115 315.631256,191.766846 318.055664,189.258850 
	C321.833862,189.281174 325.524384,189.647629 329.597198,190.019928 
	C330.281372,193.913315 329.645386,196.548645 324.598083,195.252548 
	C322.864258,194.807327 320.782288,195.718018 318.450378,196.011383 
z"/>
<path fill="#779EE8" opacity="1.000000" stroke="none" 
	d="
M233.571930,254.665070 
	C232.490219,256.591095 231.538269,258.146240 230.283081,259.814209 
	C228.986511,259.172150 227.993164,258.417236 226.894104,257.151672 
	C226.531021,256.762299 226.273636,256.883575 226.016251,257.004822 
	C225.845673,257.010925 225.675079,257.017029 225.225922,256.645477 
	C224.972733,255.525269 224.998123,254.782669 225.023499,254.040085 
	C225.831238,253.247589 226.580246,252.382401 227.456436,251.674667 
	C232.425003,247.661407 232.435364,247.674225 233.571930,254.665070 
z"/>
<path fill="#9FBCE9" opacity="1.000000" stroke="none" 
	d="
M203.464386,275.766571 
	C204.412186,276.244263 205.035202,276.870453 205.841949,277.774963 
	C203.065857,281.247040 200.106049,284.440826 196.884125,287.917450 
	C195.637131,286.459869 194.409515,285.024933 192.967224,283.339081 
	C196.062759,280.126221 201.607422,280.633728 203.464386,275.766571 
z"/>
<path fill="#9FBCE9" opacity="1.000000" stroke="none" 
	d="
M328.849915,95.878082 
	C325.390167,99.901039 321.930450,103.923988 317.594727,108.965546 
	C318.683990,101.892548 321.913788,97.629829 326.363617,93.413254 
	C327.806488,92.684311 328.837738,92.361488 330.052002,91.981377 
	C329.571991,93.537354 329.210938,94.707718 328.849915,95.878082 
z"/>
<path fill="#DEEAF9" opacity="1.000000" stroke="none" 
	d="
M329.272400,95.921799 
	C329.210938,94.707718 329.571991,93.537354 330.052002,91.981377 
	C328.837738,92.361488 327.806488,92.684311 326.457733,93.089493 
	C326.279297,89.892914 328.342010,88.950684 331.921753,88.954178 
	C333.084808,88.276047 333.541779,87.637352 333.998779,86.998657 
	C333.998779,86.998665 334.000000,87.000000 333.999390,86.999252 
	C334.996307,88.100136 335.993866,89.201775 336.996918,90.653587 
	C335.797882,94.471039 333.935303,96.969254 329.272400,95.921799 
z"/>
<path fill="#DEEAF9" opacity="1.000000" stroke="none" 
	d="
M124.338791,229.131104 
	C126.409752,226.321686 128.808914,223.654373 132.045685,220.055817 
	C132.752151,223.104401 133.251251,225.258163 133.882599,227.713272 
	C131.356598,231.833572 127.755852,228.652496 124.338791,229.131104 
z"/>
<path fill="#9EBAE5" opacity="1.000000" stroke="none" 
	d="
M371.132385,140.200806 
	C372.508026,138.243896 373.933868,136.651230 375.718414,135.017899 
	C377.642914,137.616180 380.511932,140.002853 377.369507,144.273575 
	C375.280151,143.021164 373.231384,141.793106 371.132385,140.200806 
z"/>
<path fill="#6A95E4" opacity="1.000000" stroke="none" 
	d="
M318.228363,183.749268 
	C316.747772,184.614548 315.496887,185.222321 314.170593,185.866730 
	C310.599182,183.732224 313.121429,181.313354 314.079163,178.611191 
	C315.523834,177.952499 316.924896,177.635208 318.325928,177.317902 
	C318.369995,179.375854 318.414032,181.433823 318.228363,183.749268 
z"/>
<path fill="#E6EEF9" opacity="1.000000" stroke="none" 
	d="
M220.516541,113.047729 
	C222.356461,114.583809 223.876099,116.192444 225.697433,117.941002 
	C225.447632,120.044701 222.393265,121.108253 219.539871,119.851067 
	C218.382980,119.341339 217.729614,117.688828 216.963135,116.263847 
	C218.118179,115.021004 219.157211,114.070641 220.516541,113.047729 
z"/>
<path fill="#A2BFEB" opacity="1.000000" stroke="none" 
	d="
M376.286316,100.228027 
	C377.364716,98.288376 378.722992,96.595787 380.206268,94.663208 
	C381.264374,96.007256 382.197510,97.591286 383.130646,99.175316 
	C380.942505,99.608574 378.754364,100.041832 376.286316,100.228027 
z"/>
<path fill="#779EE8" opacity="1.000000" stroke="none" 
	d="
M260.630005,180.304535 
	C263.729095,179.538666 265.851776,180.273788 266.619232,183.670105 
	C264.717194,184.077011 263.073395,184.003616 261.429596,183.930237 
	C261.069763,182.760468 260.709900,181.590698 260.630005,180.304535 
z"/>
<path fill="#D7E6F7" opacity="1.000000" stroke="none" 
	d="
M304.765167,183.068909 
	C306.549194,183.993652 308.020020,184.922455 309.739441,186.008224 
	C309.739441,187.222885 309.739441,188.812454 309.739441,190.402008 
	C309.382690,190.603806 309.025940,190.805603 308.669159,191.007401 
	C307.067200,188.593369 305.465240,186.179352 303.847656,183.464020 
	C304.038696,183.132782 304.245331,183.102875 304.765167,183.068909 
z"/>
<path fill="#9FBCE9" opacity="1.000000" stroke="none" 
	d="
M224.601562,254.018112 
	C224.998123,254.782669 224.972733,255.525269 224.969910,256.639526 
	C223.199890,257.647034 221.407288,258.282898 219.614685,258.918793 
	C220.004929,259.615417 220.395172,260.312073 220.785431,261.008728 
	C220.522156,259.906860 220.258881,258.804993 220.089294,257.073334 
	C220.110825,255.588257 220.038681,254.732986 219.966522,253.877701 
	C221.370880,253.917175 222.775238,253.956650 224.601562,254.018112 
z"/>
<path fill="#D3E3F6" opacity="1.000000" stroke="none" 
	d="
M352.161316,83.424713 
	C347.706604,83.020988 346.537811,81.004410 348.717102,77.108917 
	C349.127686,77.272301 349.309692,77.542549 349.878479,78.041260 
	C350.443451,78.210457 350.708527,78.092667 350.973602,77.974876 
	C350.973602,77.974876 351.416199,77.940536 351.636505,77.921936 
	C351.942841,79.605003 352.028870,81.306671 352.161316,83.424713 
z"/>
<path fill="#9FBCE9" opacity="1.000000" stroke="none" 
	d="
M105.746552,204.669373 
	C105.359406,206.705292 104.709755,208.520157 104.030205,210.667511 
	C104.000305,211.000000 104.000000,211.000000 103.643387,210.960190 
	C102.524384,209.612595 101.761986,208.304825 100.999596,206.997040 
	C101.202393,206.992065 101.405197,206.987091 101.998413,206.944962 
	C102.570686,206.818176 102.668983,206.673920 102.683731,206.475021 
	C103.617172,205.799454 104.550606,205.123886 105.746552,204.669373 
z"/>
<path fill="#9FBDEA" opacity="1.000000" stroke="none" 
	d="
M100.677368,207.055176 
	C101.761986,208.304825 102.524384,209.612595 103.643234,210.960190 
	C101.824791,210.627823 99.649879,210.255646 97.298683,209.629669 
	C98.199974,208.621674 99.277557,207.867508 100.677368,207.055176 
z"/>
<path fill="#D7E6F7" opacity="1.000000" stroke="none" 
	d="
M219.832458,253.587448 
	C220.038681,254.732986 220.110825,255.588257 220.085419,256.699066 
	C218.752472,255.836029 217.517044,254.717484 216.389664,253.147964 
	C216.653030,252.141830 216.808350,251.586639 216.963684,251.031464 
	C217.875244,251.786713 218.786819,252.541946 219.832458,253.587448 
z"/>
<path fill="#D3E3F6" opacity="1.000000" stroke="none" 
	d="
M261.120575,184.060974 
	C263.073395,184.003616 264.717194,184.077011 266.676025,184.018524 
	C266.797150,184.642578 266.603241,185.398499 265.942139,186.159409 
	C265.474915,186.164383 265.117493,186.259354 265.117493,186.259354 
	C263.920685,186.410583 262.723907,186.561798 261.175720,186.846130 
	C260.820068,186.050049 260.815796,185.120895 261.120575,184.060974 
z"/>
<path fill="#D3E3F6" opacity="1.000000" stroke="none" 
	d="
M277.180664,200.238617 
	C278.453217,199.520187 280.282440,195.752380 281.065979,200.753220 
	C279.778259,200.859772 278.569702,200.674240 277.180664,200.238617 
z"/>
<path fill="#9FBCE9" opacity="1.000000" stroke="none" 
	d="
M95.923050,253.376709 
	C97.194725,252.924774 98.431602,252.848801 99.668480,252.772827 
	C99.830856,253.059387 99.993233,253.345963 100.155602,253.632538 
	C99.017197,254.397186 97.878784,255.161835 96.394699,255.962769 
	C95.995430,255.250244 95.941849,254.501465 95.923050,253.376709 
z"/>
<path fill="#9EBAE5" opacity="1.000000" stroke="none" 
	d="
M182.041000,81.093979 
	C181.606949,80.512489 181.172897,79.931007 180.504349,79.217117 
	C180.957260,78.388245 181.644669,77.691780 182.755829,77.266266 
	C183.481033,78.639992 183.782516,79.742752 184.083984,80.845520 
	C184.083984,80.845520 184.004959,80.962044 183.650299,80.994331 
	C182.877411,81.049072 182.459213,81.071526 182.041000,81.093979 
z"/>
<path fill="#9FBCE9" opacity="1.000000" stroke="none" 
	d="
M206.553864,270.162292 
	C207.286072,269.964874 207.765335,269.982178 208.621826,269.998291 
	C208.999054,269.997070 208.987900,270.034027 208.987900,270.034027 
	C208.320694,271.015961 207.653488,271.997925 206.647522,272.992554 
	C206.306152,272.129181 206.303543,271.253113 206.553864,270.162292 
z"/>
<path fill="#A2BFEB" opacity="1.000000" stroke="none" 
	d="
M369.636475,100.703011 
	C369.313751,100.635094 369.239014,100.267265 369.252319,100.078903 
	C370.486420,99.711395 371.707214,99.532234 372.958801,99.651230 
	C371.979431,100.223244 370.969299,100.497086 369.636475,100.703011 
z"/>
<path fill="#DEEAF9" opacity="1.000000" stroke="none" 
	d="
M184.371643,80.632584 
	C183.782516,79.742752 183.481033,78.639992 183.087280,77.288162 
	C183.181244,76.762688 183.367523,76.486267 184.019012,76.176590 
	C184.751434,76.337250 184.987671,76.563469 185.192978,76.821991 
	C185.015091,78.021210 184.837204,79.220436 184.371643,80.632584 
z"/>
<path fill="#DEEAF9" opacity="1.000000" stroke="none" 
	d="
M135.350159,228.014038 
	C135.806381,227.271835 136.622375,226.530350 137.712723,225.896576 
	C137.228043,226.674438 136.468979,227.344604 135.350159,228.014038 
z"/>
<path fill="#9EBAE5" opacity="1.000000" stroke="none" 
	d="
M365.420044,138.265259 
	C366.544128,138.423950 367.628204,138.921722 368.856873,139.711945 
	C367.794342,139.537704 366.587158,139.071014 365.420044,138.265259 
z"/>
<path fill="#779EE8" opacity="1.000000" stroke="none" 
	d="
M185.434402,76.639008 
	C184.987671,76.563469 184.751434,76.337250 184.249359,76.070534 
	C184.188858,75.453468 184.363235,74.909195 184.717712,74.136063 
	C185.157135,74.756798 185.416489,75.606407 185.434402,76.639008 
z"/>
<path fill="#EAF0FA" opacity="1.000000" stroke="none" 
	d="
M333.678314,87.038361 
	C333.541779,87.637352 333.084808,88.276047 332.304321,88.949821 
	C332.439819,88.349289 332.898834,87.713676 333.678314,87.038361 
z"/>
<path fill="#9FBCE9" opacity="1.000000" stroke="none" 
	d="
M112.879242,204.726868 
	C112.573128,205.255341 112.105461,205.596191 111.320869,205.704102 
	C110.999283,205.304214 110.994614,205.137222 110.989937,204.970230 
	C111.565849,204.826569 112.141762,204.682907 112.879242,204.726868 
z"/>
<path fill="#9FBCE9" opacity="1.000000" stroke="none" 
	d="
M216.934021,250.831940 
	C216.808350,251.586639 216.653030,252.141830 216.254852,252.862457 
	C216.011993,253.027893 216.005569,252.530533 216.006210,252.282166 
	C216.137177,251.529465 216.267517,251.025162 216.611969,250.378738 
	C216.826096,250.236633 216.904343,250.632416 216.934021,250.831940 
z"/>
<path fill="#9FBCE9" opacity="1.000000" stroke="none" 
	d="
M103.862091,253.568298 
	C103.695244,253.082077 103.576088,252.235336 103.686745,251.209900 
	C103.914291,251.756744 103.912041,252.482239 103.862091,253.568298 
z"/>
<path fill="#9FBDEA" opacity="1.000000" stroke="none" 
	d="
M110.659515,204.919159 
	C110.994614,205.137222 110.999283,205.304214 111.016426,205.721100 
	C111.028900,205.971008 110.994553,206.004654 110.651489,206.007477 
	C109.872856,206.006226 109.437294,206.002167 109.001053,205.751587 
	C109.000374,205.505066 108.999763,205.012039 108.999763,205.012039 
	C109.442871,204.964050 109.885979,204.916061 110.659515,204.919159 
z"/>
<path fill="#9FBCE9" opacity="1.000000" stroke="none" 
	d="
M116.748016,205.044678 
	C116.726631,205.178711 116.441673,205.333847 116.058167,205.310059 
	C116.134552,205.109329 116.309494,205.087540 116.748016,205.044678 
z"/>
<path fill="#9FBDEA" opacity="1.000000" stroke="none" 
	d="
M102.512802,206.561615 
	C102.668983,206.673920 102.570686,206.818176 102.302391,206.958984 
	C102.215958,207.010162 102.341866,206.648193 102.512802,206.561615 
z"/>
<path fill="#9FBCE9" opacity="1.000000" stroke="none" 
	d="
M108.748917,204.962692 
	C108.999763,205.012039 109.000374,205.505066 108.876266,205.872604 
	C108.752159,206.240143 108.502563,206.482147 108.482224,206.438995 
	C108.461884,206.395859 108.438713,206.488235 108.438713,206.488235 
	C108.350998,206.233078 108.263275,205.977921 108.081375,205.328384 
	C108.157486,204.927094 108.327782,204.920212 108.748917,204.962692 
z"/>
<path fill="#EAF0FA" opacity="1.000000" stroke="none" 
	d="
M350.734619,77.978027 
	C350.708527,78.092667 350.443451,78.210457 350.097992,78.154938 
	C350.017609,77.981636 350.495636,77.981186 350.734619,77.978027 
z"/>
<path fill="#D3E3F6" opacity="1.000000" stroke="none" 
	d="
M287.255005,200.971329 
	C287.277618,200.845871 287.566071,200.709290 287.953430,200.753601 
	C287.875214,200.943069 287.698029,200.951645 287.255005,200.971329 
z"/>
<path fill="#C9DCF5" opacity="1.000000" stroke="none" 
	d="
M307.439026,199.481781 
	C307.069336,199.730194 306.846130,199.758636 306.284851,199.798889 
	C305.900635,198.710663 305.854492,197.610611 305.912476,196.236877 
	C307.116638,195.433823 308.216614,194.904465 309.316589,194.375092 
	C309.254974,195.096191 309.193390,195.817307 309.058441,196.855194 
	C308.518555,197.868607 308.052032,198.565216 307.439026,199.481781 
z"/>
<path fill="#FFFFFF" opacity="1.000000" stroke="none" 
	d="
M341.536804,211.557037 
	C341.478973,211.592712 341.594635,211.521378 341.536804,211.557037 
z"/>
<path fill="#9EBBE8" opacity="1.000000" stroke="none" 
	d="
M264.607880,176.533798 
	C265.057922,176.649902 265.333832,176.933273 265.588470,177.234634 
	C265.594940,177.242310 265.367645,177.447495 265.249359,177.560562 
	C264.976562,177.274841 264.703766,176.989136 264.607880,176.533798 
z"/>
<path fill="#6A95E4" opacity="1.000000" stroke="none" 
	d="
M264.985657,186.484344 
	C265.117493,186.259354 265.474915,186.164383 265.653137,186.212418 
	C265.716278,186.958817 265.601135,187.657181 265.486023,188.355545 
	C265.275299,187.806808 265.064575,187.258087 264.985657,186.484344 
z"/>
<path fill="#779EE8" opacity="1.000000" stroke="none" 
	d="
M181.938919,81.352509 
	C182.459213,81.071526 182.877411,81.049072 183.607864,81.050507 
	C183.433884,81.687737 182.947647,82.301079 182.461411,82.914421 
	C182.253220,82.479965 182.045029,82.045502 181.938919,81.352509 
z"/>
<path fill="#A2BFEB" opacity="1.000000" stroke="none" 
	d="
M188.999329,90.999115 
	C189.091919,90.962532 189.185211,90.926834 189.140167,90.946259 
	C189.001831,91.001381 189.000000,91.000000 188.999329,90.999115 
z"/>
<path fill="#A2BFEB" opacity="1.000000" stroke="none" 
	d="
M193.998474,86.001198 
	C193.875458,85.857933 193.753952,85.713478 193.632462,85.569016 
	C193.719467,85.618507 193.806473,85.668007 193.947906,85.857216 
	C194.002365,85.996933 194.000000,86.000000 193.998474,86.001198 
z"/>
<path fill="#D3E3F6" opacity="1.000000" stroke="none" 
	d="
M358.846619,88.791183 
	C358.996155,89.189064 358.992310,89.369926 358.968323,89.822556 
	C357.967529,90.094322 356.986908,90.094322 356.053528,90.094322 
	C356.338135,92.532921 356.615173,94.906387 356.470764,97.650253 
	C351.175873,98.033783 353.624237,101.791252 352.891846,104.203659 
	C352.513428,104.621323 352.245575,104.813988 351.977722,105.006645 
	C352.666412,100.527100 346.098785,96.567589 351.030090,91.783981 
	C350.485382,91.309715 349.771057,90.926552 349.451477,90.331406 
	C349.210205,89.882133 349.473938,89.161705 349.512878,88.561966 
	C350.208954,88.810089 350.905029,89.058205 351.796021,89.159912 
	C353.340393,88.306145 354.689819,87.598793 356.332184,86.737892 
	C356.749207,87.062210 357.721222,87.818184 358.846619,88.791183 
z"/>
<path fill="#C9DCF5" opacity="1.000000" stroke="none" 
	d="
M351.881409,105.267250 
	C352.245575,104.813988 352.513428,104.621323 353.121277,104.097015 
	C353.656799,103.494125 353.852295,103.222885 354.047791,102.951660 
	C355.733612,104.442574 357.419464,105.933456 359.980560,108.198402 
	C357.025543,110.180428 354.796570,111.675453 352.284485,113.084763 
	C351.841919,111.136795 351.682495,109.274551 351.267151,107.206528 
	C351.269135,106.509773 351.527100,106.018814 351.881409,105.267250 
z"/>
<path fill="#DEEAF9" opacity="1.000000" stroke="none" 
	d="
M354.057800,102.682632 
	C353.852295,103.222885 353.656799,103.494125 353.231873,103.872025 
	C353.624237,101.791252 351.175873,98.033783 356.440582,98.027077 
	C357.112671,100.252190 356.207245,101.722298 354.057800,102.682632 
z"/>
<path fill="#C9DCF5" opacity="1.000000" stroke="none" 
	d="
M212.820099,121.120895 
	C213.113037,121.847816 213.106201,122.515205 213.099365,123.182602 
	C212.575058,123.037857 212.050766,122.893112 211.526474,122.748367 
	C211.857758,122.186035 212.189026,121.623703 212.820099,121.120895 
z"/>
<path fill="#DEEAF9" opacity="1.000000" stroke="none" 
	d="
M202.731339,121.385239 
	C203.200302,121.535553 203.483124,121.825439 203.740784,122.136177 
	C203.752335,122.150108 203.535660,122.353294 203.425278,122.468338 
	C203.130325,122.155136 202.835373,121.841942 202.731339,121.385239 
z"/>
<path fill="#9FBCE9" opacity="1.000000" stroke="none" 
	d="
M213.087982,262.292175 
	C217.213959,262.232697 216.926559,264.808807 216.681061,268.379517 
	C214.538315,267.385834 213.130371,266.732910 211.359451,266.039368 
	C211.003372,265.554901 211.010284,265.111053 211.287720,264.327332 
	C211.739075,263.976959 211.919922,263.966461 212.100754,263.955963 
	C212.424622,263.499084 212.748505,263.042175 213.087982,262.292175 
z"/>
<path fill="#9FBCE9" opacity="1.000000" stroke="none" 
	d="
M212.065781,258.265564 
	C212.809570,258.216919 213.645294,258.433746 214.481049,258.650604 
	C214.184708,259.071838 213.888367,259.493073 213.273224,259.958008 
	C212.688858,259.511475 212.423294,259.021271 212.065781,258.265564 
z"/>
<path fill="#9EBBE8" opacity="1.000000" stroke="none" 
	d="
M211.988953,263.771759 
	C211.919922,263.966461 211.739075,263.976959 211.286758,263.994354 
	C211.302567,263.863312 211.589859,263.725433 211.988953,263.771759 
z"/>
<path fill="#9FBCE9" opacity="1.000000" stroke="none" 
	d="
M112.147552,218.306091 
	C112.624496,218.010529 113.074387,218.020248 113.864731,218.058350 
	C113.510292,218.261627 112.815399,218.436508 112.147552,218.306091 
z"/>
<path fill="#DEEAF9" opacity="1.000000" stroke="none" 
	d="
M370.416870,96.262222 
	C370.067566,96.460869 369.676025,96.423714 369.284515,96.386551 
	C369.384857,96.111885 369.485199,95.837219 369.585541,95.562546 
	C369.848602,95.717171 370.111633,95.871788 370.416870,96.262222 
z"/>
<path fill="#9FBDEA" opacity="1.000000" stroke="none" 
	d="
M367.043304,94.946564 
	C367.043304,94.946564 367.521210,94.990303 367.761047,94.998100 
	C367.784302,95.276886 367.567719,95.547874 367.105072,95.922272 
	C366.859009,96.025665 366.840729,95.561760 366.908875,95.292480 
	C366.976990,95.023209 367.043304,94.946564 367.043304,94.946564 
z"/>
<path fill="#DEEAF9" opacity="1.000000" stroke="none" 
	d="
M365.970062,85.961609 
	C366.070099,85.926689 366.202698,85.927475 366.204773,85.995193 
	C366.074249,86.062126 366.002594,85.997307 365.970062,85.961609 
z"/>
<path fill="#9FBCE9" opacity="1.000000" stroke="none" 
	d="
M220.931946,270.067932 
	C221.508469,275.327881 217.648392,273.755035 214.441620,274.001099 
	C215.950989,272.272644 216.866669,268.836365 220.931946,270.067932 
z"/>
<path fill="#9FBCE9" opacity="1.000000" stroke="none" 
	d="
M220.995087,267.996094 
	C220.485367,266.605804 219.975632,265.215515 219.465912,263.825226 
	C220.156693,263.670502 220.847488,263.515808 221.538284,263.361084 
	C221.538284,264.753113 221.538284,266.145142 221.269135,267.768585 
	C221.000000,268.000000 220.995087,267.996094 220.995087,267.996094 
z"/>
<path fill="#6A95E4" opacity="1.000000" stroke="none" 
	d="
M225.376801,261.426758 
	C225.056259,260.847382 225.005249,260.316528 224.954239,259.785675 
	C225.235168,259.766602 225.516083,259.747528 225.797012,259.728485 
	C225.746780,260.310730 225.696564,260.893005 225.376801,261.426758 
z"/>
<path fill="#D7E6F7" opacity="1.000000" stroke="none" 
	d="
M208.980591,270.004089 
	C209.804901,269.809265 210.647675,269.607391 211.460022,269.700562 
	C211.429565,269.995667 211.051239,270.133698 211.051239,270.133698 
	C210.592667,270.114990 210.134094,270.096252 209.331711,270.055786 
	C208.987900,270.034027 208.999054,269.997070 208.980591,270.004089 
z"/>
<path fill="#9FBCE9" opacity="1.000000" stroke="none" 
	d="
M211.223633,270.346069 
	C211.051239,270.133698 211.429565,269.995667 211.625214,269.953979 
	C212.254379,270.027496 212.687927,270.142670 213.121460,270.257843 
	C213.114609,270.397858 213.107758,270.537842 213.100891,270.677856 
	C212.532608,270.638062 211.964325,270.598236 211.223633,270.346069 
z"/>
<path fill="#9FBCE9" opacity="1.000000" stroke="none" 
	d="
M221.001923,268.002441 
	C220.909225,268.039032 220.814606,268.073151 220.857544,268.051697 
	C220.995087,267.996094 221.000000,268.000000 221.001923,268.002441 
z"/>
<path fill="#9FBCE9" opacity="1.000000" stroke="none" 
	d="
M226.237030,257.003021 
	C226.273636,256.883575 226.531021,256.762299 226.843872,256.819611 
	C226.899338,256.998169 226.457794,257.001221 226.237030,257.003021 
z"/>
<path fill="#9FBDEA" opacity="1.000000" stroke="none" 
	d="
M102.993179,218.452942 
	C102.112617,219.070602 101.226357,219.337357 100.162254,219.372955 
	C99.638092,217.687347 99.291763,216.232925 98.945435,214.778488 
	C99.432068,214.522934 99.918701,214.267380 100.405334,214.011810 
	C101.266045,215.375229 102.126755,216.738632 102.993179,218.452942 
z"/>
<path fill="#9EBBE8" opacity="1.000000" stroke="none" 
	d="
M223.052612,269.959930 
	C223.321503,270.065857 223.496155,270.262665 223.670822,270.459473 
	C223.453827,270.495941 223.236832,270.532410 222.897949,270.403778 
	C222.776047,270.238708 222.958374,270.050812 223.052612,269.959930 
z"/>
<path fill="#9FBCE9" opacity="1.000000" stroke="none" 
	d="
M213.988846,275.007019 
	C214.093338,275.140747 214.209000,275.267578 214.324661,275.394379 
	C214.253616,275.341858 214.182556,275.289337 214.062927,275.107422 
	C214.014343,274.977997 214.000015,275.000061 213.988846,275.007019 
z"/>
<path fill="#9EBBE8" opacity="1.000000" stroke="none" 
	d="
M201.681122,111.145111 
	C202.442245,111.238876 202.990433,111.536201 203.822220,111.968735 
	C204.179428,113.590790 204.293518,115.079483 204.225967,116.559891 
	C204.221909,116.648598 202.170792,116.902199 202.086639,116.685371 
	C201.667923,115.606499 201.546448,114.400757 201.408066,113.229309 
	C201.335312,112.613396 201.442322,111.976234 201.681122,111.145111 
z"/>
<path fill="#C9DCF5" opacity="1.000000" stroke="none" 
	d="
M104.977814,222.268402 
	C107.753998,221.796768 108.503448,223.058228 107.321671,225.767029 
	C106.100479,225.956406 105.150795,225.907959 104.200546,225.876770 
	C102.971184,225.836395 101.741371,225.809784 100.511749,225.777237 
	C100.633347,224.590103 100.754944,223.402969 100.876549,222.215836 
	C102.045097,222.555771 103.211235,222.904663 104.386078,223.221237 
	C104.498955,223.251663 104.703636,223.111221 104.797546,222.995026 
	C104.893349,222.876465 104.905045,222.689926 104.977814,222.268402 
z"/>
<path fill="#9EBBE8" opacity="1.000000" stroke="none" 
	d="
M98.971725,247.027756 
	C98.220512,245.842499 97.469292,244.657242 96.417229,242.997330 
	C98.948502,243.267288 100.778885,243.462509 103.157364,243.716171 
	C101.561020,244.828461 100.438377,245.610703 99.156471,246.697845 
	C98.997208,247.002777 98.971725,247.027756 98.971725,247.027756 
z"/>
<path fill="#9EBBE8" opacity="1.000000" stroke="none" 
	d="
M99.009773,246.990387 
	C99.571869,247.155304 100.121407,247.332626 100.835785,247.754517 
	C101.000633,247.999100 101.000000,248.000000 100.676331,248.001892 
	C99.922752,248.022003 99.492844,248.040222 99.062943,248.058441 
	C99.062943,248.058441 99.007011,248.005066 98.978775,247.977783 
	C98.950546,247.950500 98.980057,247.489258 98.975891,247.258514 
	C98.971725,247.027756 98.997208,247.002777 99.009773,246.990387 
z"/>
<path fill="#9FBCE9" opacity="1.000000" stroke="none" 
	d="
M108.876938,206.119125 
	C109.437294,206.002167 109.872856,206.006226 110.634140,206.024048 
	C110.312492,206.299789 109.665131,206.561783 108.796463,206.684052 
	C108.575165,206.544327 108.502563,206.482147 108.502563,206.482147 
	C108.502563,206.482147 108.752159,206.240143 108.876938,206.119125 
z"/>
<path fill="#FFFFFF" opacity="1.000000" stroke="none" 
	d="
M108.482224,206.438995 
	C108.502563,206.482147 108.575165,206.544327 108.524284,206.538956 
	C108.473404,206.533585 108.412994,206.515533 108.425858,206.501892 
	C108.438713,206.488235 108.461884,206.395859 108.482224,206.438995 
z"/>
<path fill="#9FBCE9" opacity="1.000000" stroke="none" 
	d="
M114.120667,207.269043 
	C114.314537,207.152390 114.587288,207.323135 114.953278,207.768616 
	C114.751366,207.909851 114.469048,207.747559 114.120667,207.269043 
z"/>
<path fill="#9FBCE9" opacity="1.000000" stroke="none" 
	d="
M108.986725,212.980103 
	C109.081757,212.939407 109.193085,212.917770 109.173019,212.963638 
	C109.041634,213.031158 109.003014,212.999176 108.986725,212.980103 
z"/>
<path fill="#9FBCE9" opacity="1.000000" stroke="none" 
	d="
M111.982018,217.020599 
	C112.058235,216.999557 112.152611,216.958023 112.103210,216.976334 
	C111.959427,217.036179 112.000175,217.000092 111.982018,217.020599 
z"/>
<path fill="#9FBCE9" opacity="1.000000" stroke="none" 
	d="
M99.083405,248.352631 
	C99.492844,248.040222 99.922752,248.022003 100.675812,248.002502 
	C100.773972,248.516800 100.548965,249.032379 100.323959,249.547974 
	C99.917259,249.247589 99.510567,248.947205 99.083405,248.352631 
z"/>
<path fill="#9FBDEA" opacity="1.000000" stroke="none" 
	d="
M365.079498,92.907150 
	C365.653290,93.411987 366.227051,93.916824 366.922058,94.684113 
	C367.043304,94.946564 366.976990,95.023209 366.940552,95.062523 
	C366.261383,94.651878 365.618652,94.201920 364.975098,93.385414 
	C364.974213,93.018875 365.079498,92.907150 365.079498,92.907150 
z"/>
<path fill="#9EBAE5" opacity="1.000000" stroke="none" 
	d="
M361.435669,90.384140 
	C361.550110,90.302383 361.611542,90.603951 361.611542,90.603951 
	C361.611542,90.603951 361.321228,90.465897 361.435669,90.384140 
z"/>
<path fill="#9FBDEA" opacity="1.000000" stroke="none" 
	d="
M364.918213,93.071411 
	C364.669342,92.955650 364.476410,92.787354 364.283508,92.619064 
	C364.485809,92.597420 364.688110,92.575768 364.984955,92.730637 
	C365.079498,92.907150 364.974213,93.018875 364.918213,93.071411 
z"/>
</svg>