<svg version="1.1" id="Layer_1" xmlns="http://www.w3.org/2000/svg" xmlns:xlink="http://www.w3.org/1999/xlink" x="0px" y="0px"
	 width="100%" viewBox="0 0 60 62" enable-background="new 0 0 60 62" xml:space="preserve">
<path fill="#F9F9F9" opacity="1.000000" stroke="none" 
	d="
M34.000004,63.000000 
	C22.688910,63.000000 11.877821,63.000000 1.033365,63.000000 
	C1.033365,42.398052 1.033365,21.796045 1.033365,1.097017 
	C20.893837,1.097017 40.788303,1.097017 60.841385,1.097017 
	C60.841385,21.665693 60.841385,42.332733 60.841385,63.000000 
	C52.130375,63.000000 43.315189,63.000000 34.000004,63.000000 
M23.658098,34.163643 
	C22.184961,35.621376 20.697733,37.065277 19.246187,38.544205 
	C18.724771,39.075459 18.289322,39.691086 17.814642,40.268208 
	C18.564505,40.716198 19.611612,41.731323 20.015673,41.519547 
	C22.517183,40.208454 24.874113,38.621506 27.300493,37.112843 
	C28.730141,41.368118 30.450064,46.487392 32.169987,51.606670 
	C32.844997,51.570000 33.520008,51.533333 34.195019,51.496666 
	C35.617313,45.969734 37.039608,40.442802 38.617313,34.311943 
	C43.749981,42.755112 44.893425,43.311329 48.464977,39.209824 
	C39.647282,38.198200 44.389469,27.928253 37.962147,24.170610 
	C36.265610,30.541573 34.721565,36.339874 32.791229,43.588818 
	C31.194334,38.305920 30.131695,34.538803 28.876307,30.837055 
	C28.605938,30.039824 27.694733,29.037504 26.977224,28.948580 
	C26.407785,28.878008 25.540367,29.967293 25.065763,30.708422 
	C24.538185,31.532276 24.305864,32.545208 23.658098,34.163643 
z"/>
<path fill="#242A41" opacity="1.000000" stroke="none" 
	d="
M23.801550,33.819733 
	C24.305864,32.545208 24.538185,31.532276 25.065763,30.708422 
	C25.540367,29.967293 26.407785,28.878008 26.977224,28.948580 
	C27.694733,29.037504 28.605938,30.039824 28.876307,30.837055 
	C30.131695,34.538803 31.194334,38.305920 32.791229,43.588818 
	C34.721565,36.339874 36.265610,30.541573 37.962147,24.170610 
	C44.389469,27.928253 39.647282,38.198200 48.464977,39.209824 
	C44.893425,43.311329 43.749981,42.755112 38.617313,34.311943 
	C37.039608,40.442802 35.617313,45.969734 34.195019,51.496666 
	C33.520008,51.533333 32.844997,51.570000 32.169987,51.606670 
	C30.450064,46.487392 28.730141,41.368118 27.300493,37.112843 
	C24.874113,38.621506 22.517183,40.208454 20.015673,41.519547 
	C19.611612,41.731323 18.564505,40.716198 17.814640,40.268208 
	C18.289322,39.691086 18.724771,39.075459 19.246187,38.544205 
	C20.697733,37.065277 22.184961,35.621376 23.801550,33.819733 
z"/>
</svg>