<svg version="1.1" id="Layer_1" xmlns="http://www.w3.org/2000/svg" xmlns:xlink="http://www.w3.org/1999/xlink" x="0px" y="0px"
	 width="100%" viewBox="0 0 62 60" enable-background="new 0 0 62 60" xml:space="preserve">
<path fill="#FAFAFA" opacity="1.000000" stroke="none" 
	d="
M40.000156,61.000000 
	C26.666767,61.000000 13.833436,61.000000 1.000078,61.000000 
	C1.000052,41.000038 1.000052,21.000074 1.000026,1.000083 
	C21.666628,1.000056 42.333256,1.000056 62.999908,1.000028 
	C62.999939,20.999958 62.999939,40.999916 62.999969,60.999939 
	C55.500072,61.000000 48.000141,61.000000 40.000156,61.000000 
M24.396391,32.597263 
	C23.798212,35.222984 23.200033,37.848709 22.566650,40.628956 
	C30.673281,40.628956 37.925041,40.628956 45.307095,40.628956 
	C46.223747,37.445301 47.088806,34.440853 48.204823,30.564796 
	C40.103439,31.024784 32.481495,31.457550 24.396391,32.597263 
M21.030186,23.351688 
	C20.845943,24.630650 20.661703,25.909611 20.460459,27.306606 
	C28.263889,27.306606 35.831478,27.306606 43.702168,27.306606 
	C44.252605,24.222704 44.765831,21.347290 45.327732,18.199181 
	C37.526157,18.199181 30.136112,18.199181 22.577135,18.199181 
	C22.123363,19.776009 21.717691,21.185684 21.030186,23.351688 
z"/>
<path fill="#262626" opacity="1.000000" stroke="none" 
	d="
M24.627970,32.243790 
	C32.481495,31.457550 40.103439,31.024784 48.204823,30.564796 
	C47.088806,34.440853 46.223747,37.445301 45.307095,40.628956 
	C37.925041,40.628956 30.673281,40.628956 22.566650,40.628956 
	C23.200033,37.848709 23.798212,35.222984 24.627970,32.243790 
z"/>
<path fill="#2D2D2D" opacity="1.000000" stroke="none" 
	d="
M21.171104,22.973524 
	C21.717691,21.185684 22.123363,19.776009 22.577135,18.199181 
	C30.136112,18.199181 37.526157,18.199181 45.327732,18.199181 
	C44.765831,21.347290 44.252605,24.222704 43.702168,27.306606 
	C35.831478,27.306606 28.263889,27.306606 20.460459,27.306606 
	C20.661703,25.909611 20.845943,24.630650 21.171104,22.973524 
z"/>
</svg>